<?xml version="1.0" standalone="no"?>
<!DOCTYPE svg PUBLIC "-//W3C//DTD SVG 20010904//EN"
 "http://www.w3.org/TR/2001/REC-SVG-20010904/DTD/svg10.dtd">
<svg version="1.0" xmlns="http://www.w3.org/2000/svg"
 width="300.000000pt" height="297.000000pt" viewBox="0 0 300.000000 297.000000"
 preserveAspectRatio="xMidYMid meet">
<metadata>
Created by potrace 1.10, written by Peter Selinger 2001-2011
</metadata>
<g transform="translate(0.000000,297.000000) scale(0.100000,-0.100000)"
fill="#000000" stroke="none">
<path d="M195 2945 c-54 -32 -110 -88 -143 -144 -27 -46 -27 -47 -30 -269 -3
-218 -3 -223 21 -276 34 -74 88 -130 159 -166 l61 -30 422 0 c314 0 424 -3
433 -12 7 -7 12 -44 12 -94 0 -65 -3 -83 -16 -88 -9 -3 -249 -6 -535 -6 -506
0 -520 -1 -539 -20 -18 -18 -20 -33 -20 -158 0 -132 1 -140 23 -160 l24 -22
589 2 589 3 56 26 c68 32 120 82 157 152 27 51 27 56 30 257 3 192 2 209 -19
265 -28 75 -101 154 -172 186 -51 24 -57 24 -482 29 l-430 5 0 90 0 90 532 5
c592 6 551 0 578 76 l14 39 1 -32 c0 -19 8 -41 20 -53 19 -19 33 -20 270 -20
l250 0 5 -22 c3 -13 4 -180 3 -373 l-3 -350 -252 -5 c-320 -6 -299 7 -295
-183 3 -127 4 -133 28 -154 l25 -23 680 0 680 0 24 25 c24 23 25 30 25 144 0
130 -9 163 -47 180 -15 7 -109 11 -264 11 l-239 0 2 373 3 372 252 3 252 2 20
27 c19 23 21 40 21 145 0 95 -4 126 -17 149 l-17 29 -698 0 -698 0 -18 -30
-19 -30 -22 30 -22 30 -612 -1 -612 -1 -40 -23z m1255 -150 l0 -146 -555 1
-556 2 -2 -136 -2 -135 455 -3 455 -3 50 -27 c60 -31 95 -67 127 -128 22 -43
23 -54 23 -265 l0 -220 -27 -45 c-33 -56 -70 -92 -128 -122 l-45 -23 -595 -3
-595 -2 0 140 0 140 558 0 557 0 0 140 0 140 -447 0 -448 0 -51 24 c-62 29
-120 85 -145 140 -16 36 -19 68 -19 251 0 190 2 214 21 255 37 83 112 142 202
160 23 4 295 8 605 9 l562 1 0 -145z m1481 -1 l0 -136 -276 -2 -275 -1 -3
-413 -2 -412 277 0 277 0 3 -140 3 -140 -697 0 -698 0 0 140 0 140 280 0 280
0 0 415 0 416 -277 -1 -278 -2 -3 128 c-1 70 -1 133 1 138 3 8 219 10 696 9
l692 -3 0 -136z"/>
<path d="M273 1482 l-212 -2 -20 -27 c-19 -23 -21 -40 -21 -155 0 -124 1 -130
25 -153 l24 -25 251 0 c194 0 250 -3 249 -12 -4 -112 14 -1055 21 -1069 16
-29 77 -41 187 -37 91 3 104 6 127 27 l26 24 2 531 3 531 255 5 c140 3 256 7
257 8 43 42 43 43 43 174 0 122 -1 130 -23 152 l-24 24 -429 5 c-236 3 -451 5
-479 4 -27 -1 -145 -3 -262 -5z m1177 -182 l0 -140 -280 0 -281 0 1 -556 2
-555 -139 0 -138 0 0 555 0 556 -280 0 -280 0 0 140 0 140 698 0 697 0 0 -140z"/>
<path d="M1782 1479 c-127 -21 -221 -106 -266 -240 -23 -67 -16 -394 9 -462
24 -66 111 -158 177 -188 53 -24 57 -24 483 -29 l430 -5 0 -90 0 -90 -531 -5
c-505 -5 -533 -6 -553 -24 -19 -18 -21 -29 -21 -161 0 -135 1 -143 23 -163
l23 -22 570 0 c504 0 576 2 620 17 101 34 179 107 214 201 17 46 20 78 20 247
0 171 -2 201 -20 249 -29 76 -88 139 -168 178 l-67 33 -428 3 -428 3 3 92 3
92 529 3 c528 2 530 2 553 24 22 20 23 28 23 158 0 120 -2 139 -19 156 -18 20
-35 21 -327 27 -402 9 -785 7 -852 -4z m1163 -179 l0 -140 -560 0 -560 0 2
-135 1 -136 449 -2 448 -2 51 -27 c67 -35 111 -81 140 -143 22 -47 24 -62 24
-248 0 -212 -4 -233 -56 -309 -28 -40 -81 -78 -133 -96 -23 -8 -203 -12 -620
-12 l-586 -1 -3 141 -3 140 561 -2 560 -3 0 140 0 140 -448 0 -447 0 -52 24
c-61 27 -116 84 -147 150 -19 42 -21 63 -21 246 0 198 0 200 27 251 35 67 81
111 143 140 l50 24 590 0 590 0 0 -140z"/>
</g>
</svg>
